<?xml version="1.0" encoding="UTF-8" standalone="no"?>
<!DOCTYPE svg PUBLIC "-//W3C//DTD SVG 1.1//EN"
 "http://www.w3.org/Graphics/SVG/1.1/DTD/svg11.dtd">
<!-- Generated by graphviz version 2.44.0 (0)
 -->
<!-- Pages: 1 -->
<svg width="2410pt" height="1405pt"
 viewBox="0.00 0.00 2409.58 1405.00" xmlns="http://www.w3.org/2000/svg" xmlns:xlink="http://www.w3.org/1999/xlink">
<g id="graph0" class="graph" transform="scale(1 1) rotate(0) translate(4 1401)">
<polygon fill="white" stroke="transparent" points="-4,4 -4,-1401 2405.58,-1401 2405.58,4 -4,4"/>
<g id="clust1" class="cluster">
<title>cluster_client_tier</title>
<path fill="none" stroke="blue" d="M249.88,-63C249.88,-63 923.93,-63 923.93,-63 929.93,-63 935.93,-69 935.93,-75 935.93,-75 935.93,-702 935.93,-702 935.93,-708 929.93,-714 923.93,-714 923.93,-714 249.88,-714 249.88,-714 243.88,-714 237.88,-708 237.88,-702 237.88,-702 237.88,-75 237.88,-75 237.88,-69 243.88,-63 249.88,-63"/>
<text text-anchor="middle" x="586.9" y="-698.8" font-family="Times-Roman" font-size="14.00">Client Tier</text>
</g>
<g id="clust3" class="cluster">
<title>cluster_application_tier</title>
<path fill="none" stroke="red" d="M20,-722C20,-722 2381.58,-722 2381.58,-722 2387.58,-722 2393.58,-728 2393.58,-734 2393.58,-734 2393.58,-1377 2393.58,-1377 2393.58,-1383 2387.58,-1389 2381.58,-1389 2381.58,-1389 20,-1389 20,-1389 14,-1389 8,-1383 8,-1377 8,-1377 8,-734 8,-734 8,-728 14,-722 20,-722"/>
<text text-anchor="middle" x="1200.79" y="-1373.8" font-family="Times-Roman" font-size="14.00">Application Tier</text>
</g>
<g id="clust4" class="cluster">
<title>cluster_ingestion</title>
<path fill="none" stroke="red" d="M28,-1029C28,-1029 1712.44,-1029 1712.44,-1029 1718.44,-1029 1724.44,-1035 1724.44,-1041 1724.44,-1041 1724.44,-1346 1724.44,-1346 1724.44,-1352 1718.44,-1358 1712.44,-1358 1712.44,-1358 28,-1358 28,-1358 22,-1358 16,-1352 16,-1346 16,-1346 16,-1041 16,-1041 16,-1035 22,-1029 28,-1029"/>
<text text-anchor="middle" x="870.22" y="-1342.8" font-family="Times-Roman" font-size="14.00">Ingestion</text>
</g>
<g id="clust5" class="cluster">
<title>cluster_ingestion_document_processing</title>
<path fill="none" stroke="red" d="M967.93,-1070C967.93,-1070 1369,-1070 1369,-1070 1375,-1070 1381,-1076 1381,-1082 1381,-1082 1381,-1133 1381,-1133 1381,-1139 1375,-1145 1369,-1145 1369,-1145 967.93,-1145 967.93,-1145 961.93,-1145 955.93,-1139 955.93,-1133 955.93,-1133 955.93,-1082 955.93,-1082 955.93,-1076 961.93,-1070 967.93,-1070"/>
<text text-anchor="middle" x="1168.46" y="-1129.8" font-family="Times-Roman" font-size="14.00">Processing</text>
</g>
<g id="clust6" class="cluster">
<title>cluster_metadata_access</title>
<path fill="none" stroke="red" d="M2049.58,-730C2049.58,-730 2158.58,-730 2158.58,-730 2164.58,-730 2170.58,-736 2170.58,-742 2170.58,-742 2170.58,-793 2170.58,-793 2170.58,-799 2164.58,-805 2158.58,-805 2158.58,-805 2049.58,-805 2049.58,-805 2043.58,-805 2037.58,-799 2037.58,-793 2037.58,-793 2037.58,-742 2037.58,-742 2037.58,-736 2043.58,-730 2049.58,-730"/>
<text text-anchor="middle" x="2104.08" y="-789.8" font-family="Times-Roman" font-size="14.00">Metadata Access</text>
</g>
<g id="clust7" class="cluster">
<title>cluster_processing</title>
<path fill="none" stroke="red" d="M2021.58,-895C2021.58,-895 2373.58,-895 2373.58,-895 2379.58,-895 2385.58,-901 2385.58,-907 2385.58,-907 2385.58,-1030 2385.58,-1030 2385.58,-1036 2379.58,-1042 2373.58,-1042 2373.58,-1042 2021.58,-1042 2021.58,-1042 2015.58,-1042 2009.58,-1036 2009.58,-1030 2009.58,-1030 2009.58,-907 2009.58,-907 2009.58,-901 2015.58,-895 2021.58,-895"/>
<text text-anchor="middle" x="2197.58" y="-1026.8" font-family="Times-Roman" font-size="14.00">Processing</text>
</g>
<g id="clust8" class="cluster">
<title>cluster_delivery</title>
<path fill="none" stroke="red" d="M1592.4,-730C1592.4,-730 1784.58,-730 1784.58,-730 1790.58,-730 1796.58,-736 1796.58,-742 1796.58,-742 1796.58,-1009 1796.58,-1009 1796.58,-1015 1790.58,-1021 1784.58,-1021 1784.58,-1021 1592.4,-1021 1592.4,-1021 1586.4,-1021 1580.4,-1015 1580.4,-1009 1580.4,-1009 1580.4,-742 1580.4,-742 1580.4,-736 1586.4,-730 1592.4,-730"/>
<text text-anchor="middle" x="1688.49" y="-1005.8" font-family="Times-Roman" font-size="14.00">Delivery</text>
</g>
<!-- inquiry -->
<g id="node1" class="node">
<title>inquiry</title>
<ellipse fill="none" stroke="black" cx="383.02" cy="-89" rx="42.79" ry="18"/>
<text text-anchor="middle" x="383.02" y="-85.3" font-family="Times-Roman" font-size="14.00">Inquiry</text>
</g>
<!-- metadata_api -->
<g id="node27" class="node">
<title>metadata_api</title>
<ellipse fill="none" stroke="black" cx="2103.58" cy="-756" rx="27" ry="18"/>
<text text-anchor="middle" x="2103.58" y="-752.3" font-family="Times-Roman" font-size="14.00">API</text>
</g>
<!-- inquiry&#45;&gt;metadata_api -->
<g id="edge39" class="edge">
<title>inquiry&#45;&gt;metadata_api</title>
<path fill="none" stroke="black" d="M420.71,-80.06C516.64,-57.49 783.13,0 1008.42,0 1008.42,0 1008.42,0 1689.49,0 1828.36,0 1892.48,-4.47 1981.58,-111 2062.13,-207.31 2093.67,-615.91 2100.88,-727.65"/>
<polygon fill="black" stroke="black" points="2097.4,-728.05 2101.52,-737.81 2104.39,-727.61 2097.4,-728.05"/>
</g>
<!-- realtime_tx_rest -->
<g id="node2" class="node">
<title>realtime_tx_rest</title>
<ellipse fill="none" stroke="black" cx="383.02" cy="-593" rx="137.28" ry="18"/>
<text text-anchor="middle" x="383.02" y="-589.3" font-family="Times-Roman" font-size="14.00">Realtime Transaction &#45; REST</text>
</g>
<!-- upload_share_raw -->
<g id="node14" class="node">
<title>upload_share_raw</title>
<polygon fill="none" stroke="turquoise" points="816.54,-1217 813.54,-1221 792.54,-1221 789.54,-1217 667.54,-1217 667.54,-1181 816.54,-1181 816.54,-1217"/>
<text text-anchor="middle" x="742.04" y="-1195.3" font-family="Times-Roman" font-size="14.00">Shared File System</text>
</g>
<!-- realtime_tx_rest&#45;&gt;upload_share_raw -->
<g id="edge43" class="edge">
<title>realtime_tx_rest&#45;&gt;upload_share_raw</title>
<path fill="none" stroke="turquoise" d="M486.84,-604.95C499.62,-610.5 511.29,-618.25 520.16,-629 595.85,-720.74 477.48,-1073.81 556.16,-1163 581.07,-1191.24 620.99,-1201.36 657.37,-1203.94"/>
<polygon fill="turquoise" stroke="turquoise" points="657.35,-1207.45 667.52,-1204.48 657.72,-1200.46 657.35,-1207.45"/>
</g>
<!-- upload_sftp_raw -->
<g id="node15" class="node">
<title>upload_sftp_raw</title>
<polygon fill="none" stroke="turquoise" points="769.04,-1145 766.04,-1149 745.04,-1149 742.04,-1145 715.04,-1145 715.04,-1109 769.04,-1109 769.04,-1145"/>
<text text-anchor="middle" x="742.04" y="-1123.3" font-family="Times-Roman" font-size="14.00">SFTP</text>
</g>
<!-- realtime_tx_rest&#45;&gt;upload_sftp_raw -->
<g id="edge44" class="edge">
<title>realtime_tx_rest&#45;&gt;upload_sftp_raw</title>
<path fill="none" stroke="turquoise" d="M486.4,-604.89C499.33,-610.44 511.16,-618.2 520.16,-629 586.11,-708.09 487.63,-1014.13 556.16,-1091 593.07,-1132.4 662.24,-1134.74 704.71,-1131.61"/>
<polygon fill="turquoise" stroke="turquoise" points="705.24,-1135.08 714.9,-1130.72 704.63,-1128.1 705.24,-1135.08"/>
</g>
<!-- upload_obj_store_raw -->
<g id="node16" class="node">
<title>upload_obj_store_raw</title>
<polygon fill="none" stroke="turquoise" points="793.04,-1073 790.04,-1077 769.04,-1077 766.04,-1073 691.04,-1073 691.04,-1037 793.04,-1037 793.04,-1073"/>
<text text-anchor="middle" x="742.04" y="-1051.3" font-family="Times-Roman" font-size="14.00">Object Store</text>
</g>
<!-- realtime_tx_rest&#45;&gt;upload_obj_store_raw -->
<g id="edge45" class="edge">
<title>realtime_tx_rest&#45;&gt;upload_obj_store_raw</title>
<path fill="none" stroke="turquoise" d="M479.59,-605.86C494.41,-611.18 508.61,-618.63 520.16,-629 553.44,-658.89 537.23,-682.47 556.16,-723 610.9,-840.21 690.25,-972.64 724.4,-1028.22"/>
<polygon fill="turquoise" stroke="turquoise" points="721.44,-1030.09 729.67,-1036.77 727.4,-1026.42 721.44,-1030.09"/>
</g>
<!-- realtime_endpoint -->
<g id="node17" class="node">
<title>realtime_endpoint</title>
<ellipse fill="none" stroke="black" cx="116.94" cy="-1055" rx="92.88" ry="18"/>
<text text-anchor="middle" x="116.94" y="-1051.3" font-family="Times-Roman" font-size="14.00">Realtime Endpoint</text>
</g>
<!-- realtime_tx_rest&#45;&gt;realtime_endpoint -->
<g id="edge40" class="edge">
<title>realtime_tx_rest&#45;&gt;realtime_endpoint</title>
<path fill="none" stroke="red" d="M278.19,-604.77C263.27,-610.26 249.17,-618.04 237.88,-629 179.46,-685.71 135.57,-940.49 122.19,-1026.52"/>
<polygon fill="red" stroke="red" points="118.7,-1026.19 120.64,-1036.61 125.62,-1027.25 118.7,-1026.19"/>
</g>
<!-- realtime_tx_streaming -->
<g id="node3" class="node">
<title>realtime_tx_streaming</title>
<ellipse fill="none" stroke="black" cx="742.04" cy="-665" rx="185.77" ry="18"/>
<text text-anchor="middle" x="742.04" y="-661.3" font-family="Times-Roman" font-size="14.00">Realtime Transaction &#45; HTTP Streaming</text>
</g>
<!-- realtime_tx_streaming&#45;&gt;realtime_endpoint -->
<g id="edge41" class="edge">
<title>realtime_tx_streaming&#45;&gt;realtime_endpoint</title>
<path fill="none" stroke="red" d="M712.36,-682.95C610.61,-746.64 267,-961.71 154.17,-1032.33"/>
<polygon fill="red" stroke="red" points="152.14,-1029.47 145.52,-1037.74 155.85,-1035.4 152.14,-1029.47"/>
</g>
<!-- batch_tx -->
<g id="node4" class="node">
<title>batch_tx</title>
<ellipse fill="none" stroke="black" cx="383.02" cy="-665" rx="90.98" ry="18"/>
<text text-anchor="middle" x="383.02" y="-661.3" font-family="Times-Roman" font-size="14.00">Batch Transaction</text>
</g>
<!-- batch_tx&#45;&gt;upload_share_raw -->
<g id="edge46" class="edge">
<title>batch_tx&#45;&gt;upload_share_raw</title>
<path fill="none" stroke="turquoise" d="M391.89,-683.2C414.14,-735.09 478.55,-888.47 520.16,-1020 539.93,-1082.49 508.58,-1117.93 556.16,-1163 582.85,-1188.28 621.74,-1198.3 656.98,-1201.58"/>
<polygon fill="turquoise" stroke="turquoise" points="657.06,-1205.1 667.29,-1202.37 657.59,-1198.12 657.06,-1205.1"/>
</g>
<!-- batch_tx&#45;&gt;upload_sftp_raw -->
<g id="edge47" class="edge">
<title>batch_tx&#45;&gt;upload_sftp_raw</title>
<path fill="none" stroke="turquoise" d="M390.81,-683.17C420.59,-762.7 538.97,-1076.82 556.16,-1091 598.28,-1125.74 664.11,-1130.47 704.79,-1129.57"/>
<polygon fill="turquoise" stroke="turquoise" points="704.94,-1133.07 714.82,-1129.22 704.7,-1126.07 704.94,-1133.07"/>
</g>
<!-- batch_tx&#45;&gt;upload_obj_store_raw -->
<g id="edge48" class="edge">
<title>batch_tx&#45;&gt;upload_obj_store_raw</title>
<path fill="none" stroke="turquoise" d="M400.29,-682.77C457.54,-745.31 649.91,-955.45 717.4,-1029.17"/>
<polygon fill="turquoise" stroke="turquoise" points="714.93,-1031.66 724.27,-1036.67 720.1,-1026.93 714.93,-1031.66"/>
</g>
<!-- batch_endpoint -->
<g id="node18" class="node">
<title>batch_endpoint</title>
<ellipse fill="none" stroke="black" cx="116.94" cy="-1199" rx="79.89" ry="18"/>
<text text-anchor="middle" x="116.94" y="-1195.3" font-family="Times-Roman" font-size="14.00">Batch Endpoint</text>
</g>
<!-- batch_tx&#45;&gt;batch_endpoint -->
<g id="edge42" class="edge">
<title>batch_tx&#45;&gt;batch_endpoint</title>
<path fill="none" stroke="blue" d="M374.61,-683.08C353.22,-735.25 289.66,-890.62 237.88,-1020 225.28,-1051.49 227.34,-1061.91 209.88,-1091 191.15,-1122.22 163.39,-1153.4 143.28,-1174.17"/>
<polygon fill="blue" stroke="blue" points="140.75,-1171.75 136.24,-1181.34 145.75,-1176.65 140.75,-1171.75"/>
</g>
<!-- doc_access -->
<g id="node5" class="node">
<title>doc_access</title>
<ellipse fill="none" stroke="black" cx="383.02" cy="-233" rx="129.98" ry="18"/>
<text text-anchor="middle" x="383.02" y="-229.3" font-family="Times-Roman" font-size="14.00">Document Access Request</text>
</g>
<!-- ui -->
<g id="node6" class="node">
<title>ui</title>
<ellipse fill="none" stroke="black" cx="383.02" cy="-449" rx="27" ry="18"/>
<text text-anchor="middle" x="383.02" y="-445.3" font-family="Times-Roman" font-size="14.00">UI</text>
</g>
<!-- ui&#45;&gt;realtime_tx_streaming -->
<g id="edge52" class="edge">
<title>ui&#45;&gt;realtime_tx_streaming</title>
<path fill="none" stroke="black" d="M410.14,-450.09C439.59,-452.54 487.61,-460.35 520.16,-485 545.26,-504 534.33,-523.31 556.16,-546 596.3,-587.73 653.78,-621.78 693.96,-642.61"/>
<polygon fill="black" stroke="black" points="692.52,-645.81 703.02,-647.23 695.7,-639.57 692.52,-645.81"/>
</g>
<!-- viewer -->
<g id="node31" class="node">
<title>viewer</title>
<ellipse fill="none" stroke="black" cx="1688.49" cy="-972" rx="90.18" ry="18"/>
<text text-anchor="middle" x="1688.49" y="-968.3" font-family="Times-Roman" font-size="14.00">Document Viewer</text>
</g>
<!-- ui&#45;&gt;viewer -->
<g id="edge51" class="edge">
<title>ui&#45;&gt;viewer</title>
<path fill="none" stroke="black" d="M408.86,-443.57C492.76,-425.72 773.5,-370 1008.42,-370 1008.42,-370 1008.42,-370 1311.61,-370 1497.87,-370 1485.31,-539.25 1552.4,-713 1588.38,-806.18 1517.15,-858.69 1580.4,-936 1587.75,-944.98 1597.42,-951.74 1607.95,-956.81"/>
<polygon fill="black" stroke="black" points="1606.81,-960.13 1617.38,-960.85 1609.57,-953.7 1606.81,-960.13"/>
</g>
<!-- cli -->
<g id="node7" class="node">
<title>cli</title>
<ellipse fill="none" stroke="black" cx="383.02" cy="-161" rx="27" ry="18"/>
<text text-anchor="middle" x="383.02" y="-157.3" font-family="Times-Roman" font-size="14.00">CLI</text>
</g>
<!-- cli&#45;&gt;realtime_endpoint -->
<g id="edge49" class="edge">
<title>cli&#45;&gt;realtime_endpoint</title>
<path fill="none" stroke="black" d="M356.08,-159.44C323.38,-159.02 267.81,-163.73 237.88,-197 124.53,-323.04 117.8,-892.34 117.81,-1026.58"/>
<polygon fill="black" stroke="black" points="114.31,-1026.86 117.83,-1036.85 121.31,-1026.85 114.31,-1026.86"/>
</g>
<!-- cli&#45;&gt;metadata_api -->
<g id="edge50" class="edge">
<title>cli&#45;&gt;metadata_api</title>
<path fill="none" stroke="black" d="M408.54,-155.09C491.98,-135.51 772.83,-74 1008.42,-74 1008.42,-74 1008.42,-74 1689.49,-74 2000.2,-74 2083.62,-598.29 2099.46,-727.49"/>
<polygon fill="black" stroke="black" points="2096.03,-728.24 2100.68,-737.76 2102.98,-727.42 2096.03,-728.24"/>
</g>
<!-- client_sftp -->
<g id="node8" class="node">
<title>client_sftp</title>
<polygon fill="none" stroke="turquoise" points="410.02,-539 407.02,-543 386.02,-543 383.02,-539 356.02,-539 356.02,-503 410.02,-503 410.02,-539"/>
<text text-anchor="middle" x="383.02" y="-517.3" font-family="Times-Roman" font-size="14.00">SFTP</text>
</g>
<!-- staging -->
<g id="node22" class="node">
<title>staging</title>
<ellipse fill="none" stroke="black" cx="1009.42" cy="-1096" rx="45.49" ry="18"/>
<text text-anchor="middle" x="1009.42" y="-1092.3" font-family="Times-Roman" font-size="14.00">Staging</text>
</g>
<!-- client_sftp&#45;&gt;staging -->
<g id="edge21" class="edge">
<title>client_sftp&#45;&gt;staging</title>
<path fill="none" stroke="#528b8b" d="M410.37,-525.29C517.7,-542.9 917.19,-609.51 935.93,-629 996.79,-692.3 1006.56,-976.23 1008.12,-1067.59"/>
<polygon fill="#528b8b" stroke="#528b8b" points="1004.63,-1067.8 1008.28,-1077.75 1011.62,-1067.69 1004.63,-1067.8"/>
</g>
<!-- client_obj_store -->
<g id="node9" class="node">
<title>client_obj_store</title>
<polygon fill="none" stroke="turquoise" points="434.02,-395 431.02,-399 410.02,-399 407.02,-395 332.02,-395 332.02,-359 434.02,-359 434.02,-395"/>
<text text-anchor="middle" x="383.02" y="-373.3" font-family="Times-Roman" font-size="14.00">Object Store</text>
</g>
<!-- client_obj_store&#45;&gt;staging -->
<g id="edge22" class="edge">
<title>client_obj_store&#45;&gt;staging</title>
<path fill="none" stroke="#528b8b" d="M434.25,-381.12C461.83,-385.51 495.37,-394.51 520.16,-413 544.78,-431.36 530.83,-454.62 556.16,-472 697.62,-569.05 817.68,-416.71 935.93,-541 1008.87,-617.67 1010.17,-965.65 1008.93,-1067.76"/>
<polygon fill="#528b8b" stroke="#528b8b" points="1005.43,-1067.86 1008.79,-1077.91 1012.43,-1067.96 1005.43,-1067.86"/>
</g>
<!-- client_http -->
<g id="node10" class="node">
<title>client_http</title>
<polygon fill="none" stroke="turquoise" points="425.02,-323 422.02,-327 401.02,-327 398.02,-323 341.02,-323 341.02,-287 425.02,-287 425.02,-323"/>
<text text-anchor="middle" x="383.02" y="-301.3" font-family="Times-Roman" font-size="14.00">HTTP URL</text>
</g>
<!-- client_http&#45;&gt;staging -->
<g id="edge23" class="edge">
<title>client_http&#45;&gt;staging</title>
<path fill="none" stroke="#528b8b" d="M425.4,-311.15C541.96,-329.34 868.89,-386.7 935.93,-467 974.95,-513.75 1000.74,-950.88 1006.96,-1067.51"/>
<polygon fill="#528b8b" stroke="#528b8b" points="1003.48,-1067.97 1007.5,-1077.78 1010.47,-1067.61 1003.48,-1067.97"/>
</g>
<!-- obj_store -->
<g id="node11" class="node">
<title>obj_store</title>
<path fill="none" stroke="yellow" stroke-width="3" d="M1967.08,-914.73C1967.08,-916.53 1938.39,-918 1903.08,-918 1867.76,-918 1839.08,-916.53 1839.08,-914.73 1839.08,-914.73 1839.08,-885.27 1839.08,-885.27 1839.08,-883.47 1867.76,-882 1903.08,-882 1938.39,-882 1967.08,-883.47 1967.08,-885.27 1967.08,-885.27 1967.08,-914.73 1967.08,-914.73"/>
<path fill="none" stroke="yellow" stroke-width="3" d="M1967.08,-914.73C1967.08,-912.92 1938.39,-911.45 1903.08,-911.45 1867.76,-911.45 1839.08,-912.92 1839.08,-914.73"/>
<text text-anchor="middle" x="1903.08" y="-896.3" font-family="Times-Roman" font-size="14.00">Document Store</text>
</g>
<!-- batch_data_pipeline -->
<g id="node29" class="node">
<title>batch_data_pipeline</title>
<polygon fill="none" stroke="black" points="2359.58,-933 2225.58,-933 2225.58,-909 2359.58,-909 2359.58,-903 2377.58,-921 2359.58,-939 2359.58,-933"/>
<text text-anchor="middle" x="2301.58" y="-917.3" font-family="Times-Roman" font-size="14.00">Batch Data Pipeline</text>
</g>
<!-- obj_store&#45;&gt;batch_data_pipeline -->
<g id="edge26" class="edge">
<title>obj_store&#45;&gt;batch_data_pipeline</title>
<path fill="none" stroke="black" d="M1967.13,-889.19C2025.24,-880.99 2113.71,-873 2189.58,-885 2211.89,-888.53 2235.82,-895.81 2255.73,-902.91"/>
</g>
<!-- realtime_data_pipeline -->
<g id="node30" class="node">
<title>realtime_data_pipeline</title>
<polygon fill="none" stroke="black" points="2171.58,-933 2017.58,-933 2017.58,-909 2171.58,-909 2171.58,-903 2189.58,-921 2171.58,-939 2171.58,-933"/>
<text text-anchor="middle" x="2103.58" y="-917.3" font-family="Times-Roman" font-size="14.00">Realtime Data Pipeline</text>
</g>
<!-- obj_store&#45;&gt;realtime_data_pipeline -->
<g id="edge28" class="edge">
<title>obj_store&#45;&gt;realtime_data_pipeline</title>
<path fill="none" stroke="black" d="M1967.16,-906.67C1983.17,-908.37 2000.63,-910.21 2017.53,-912"/>
</g>
<!-- md_store -->
<g id="node12" class="node">
<title>md_store</title>
<path fill="none" stroke="yellow" stroke-width="3" d="M1981.58,-842.73C1981.58,-844.53 1946.39,-846 1903.08,-846 1859.76,-846 1824.58,-844.53 1824.58,-842.73 1824.58,-842.73 1824.58,-813.27 1824.58,-813.27 1824.58,-811.47 1859.76,-810 1903.08,-810 1946.39,-810 1981.58,-811.47 1981.58,-813.27 1981.58,-813.27 1981.58,-842.73 1981.58,-842.73"/>
<path fill="none" stroke="yellow" stroke-width="3" d="M1981.58,-842.73C1981.58,-840.92 1946.39,-839.45 1903.08,-839.45 1859.76,-839.45 1824.58,-840.92 1824.58,-842.73"/>
<text text-anchor="middle" x="1903.08" y="-824.3" font-family="Times-Roman" font-size="14.00">Document Metadata</text>
</g>
<!-- md_store&#45;&gt;metadata_api -->
<g id="edge17" class="edge">
<title>md_store&#45;&gt;metadata_api</title>
<path fill="none" stroke="black" d="M1937.52,-809.93C1957.9,-799.48 1984.72,-786.72 2009.58,-778 2031.97,-770.15 2058.36,-764.2 2077.3,-760.48"/>
</g>
<!-- md_store&#45;&gt;batch_data_pipeline -->
<g id="edge27" class="edge">
<title>md_store&#45;&gt;batch_data_pipeline</title>
<path fill="none" stroke="black" d="M1981.75,-832.93C2039.93,-838.11 2120.97,-848.5 2189.58,-869 2217.31,-877.29 2246.9,-891.44 2268.55,-902.9"/>
</g>
<!-- md_store&#45;&gt;realtime_data_pipeline -->
<g id="edge29" class="edge">
<title>md_store&#45;&gt;realtime_data_pipeline</title>
<path fill="none" stroke="black" d="M1951.58,-845.84C1962,-850.88 1972.59,-856.95 1981.58,-864 1997.25,-876.3 1992.75,-888.35 2009.58,-899 2012.1,-900.6 2014.73,-902.08 2017.44,-903.45"/>
</g>
<!-- events_pub_sub -->
<g id="node13" class="node">
<title>events_pub_sub</title>
<polygon fill="none" stroke="black" points="1966.08,-1070 1852.08,-1070 1852.08,-1074 1840.08,-1074 1840.08,-1034 1966.08,-1034 1966.08,-1070"/>
<polyline fill="none" stroke="black" points="1840.08,-1070 1852.08,-1070 "/>
<text text-anchor="middle" x="1903.08" y="-1048.3" font-family="Times-Roman" font-size="14.00">Events Pub/Sub</text>
</g>
<!-- events_pub_sub&#45;&gt;realtime_data_pipeline -->
<g id="edge25" class="edge">
<title>events_pub_sub&#45;&gt;realtime_data_pipeline</title>
<path fill="none" stroke="black" d="M1927.31,-1026.43C1947.43,-1005.5 1978.16,-976.31 2009.58,-957 2017.99,-951.83 2027.26,-947.18 2036.6,-943.07"/>
<polygon fill="black" stroke="black" points="1924.74,-1024.06 1920.4,-1033.73 1929.82,-1028.87 1924.74,-1024.06"/>
<polygon fill="black" stroke="black" points="2038.07,-946.25 2045.93,-939.14 2035.35,-939.8 2038.07,-946.25"/>
</g>
<!-- upload_share_raw&#45;&gt;staging -->
<g id="edge18" class="edge">
<title>upload_share_raw&#45;&gt;staging</title>
<path fill="none" stroke="#528b8b" d="M816.66,-1194.95C853.98,-1190.55 899.09,-1181.49 935.93,-1163 956.09,-1152.88 974.68,-1135.45 987.99,-1120.91"/>
<polygon fill="#528b8b" stroke="#528b8b" points="990.81,-1123 994.82,-1113.19 985.57,-1118.36 990.81,-1123"/>
</g>
<!-- upload_sftp_raw&#45;&gt;staging -->
<g id="edge19" class="edge">
<title>upload_sftp_raw&#45;&gt;staging</title>
<path fill="none" stroke="#528b8b" d="M769.46,-1123.91C812.66,-1118.87 899.22,-1108.76 955.44,-1102.19"/>
<polygon fill="#528b8b" stroke="#528b8b" points="956.05,-1105.64 965.57,-1101.01 955.23,-1098.69 956.05,-1105.64"/>
</g>
<!-- upload_obj_store_raw&#45;&gt;staging -->
<g id="edge20" class="edge">
<title>upload_obj_store_raw&#45;&gt;staging</title>
<path fill="none" stroke="#528b8b" d="M793.27,-1062.76C840.03,-1069.98 909.42,-1080.7 956.66,-1088"/>
<polygon fill="#528b8b" stroke="#528b8b" points="956.27,-1091.48 966.69,-1089.55 957.34,-1084.57 956.27,-1091.48"/>
</g>
<!-- authorization -->
<g id="node19" class="node">
<title>authorization</title>
<ellipse fill="none" stroke="black" cx="383.02" cy="-1235" rx="74.19" ry="18"/>
<text text-anchor="middle" x="383.02" y="-1231.3" font-family="Times-Roman" font-size="14.00"> Authorization</text>
</g>
<!-- realtime_endpoint&#45;&gt;authorization -->
<g id="edge1" class="edge">
<title>realtime_endpoint&#45;&gt;authorization</title>
<path fill="none" stroke="red" d="M143.74,-1072.59C191.81,-1105.35 295.03,-1175.7 348.45,-1212.12"/>
<polygon fill="red" stroke="red" points="346.66,-1215.13 356.89,-1217.87 350.6,-1209.35 346.66,-1215.13"/>
</g>
<!-- batch_endpoint&#45;&gt;authorization -->
<g id="edge2" class="edge">
<title>batch_endpoint&#45;&gt;authorization</title>
<path fill="none" stroke="blue" d="M185.61,-1208.22C222.92,-1213.31 269.32,-1219.64 307.65,-1224.86"/>
<polygon fill="blue" stroke="blue" points="307.34,-1228.35 317.72,-1226.23 308.28,-1221.42 307.34,-1228.35"/>
</g>
<!-- splitting -->
<g id="node20" class="node">
<title>splitting</title>
<ellipse fill="none" stroke="black" cx="742.04" cy="-1271" rx="51.19" ry="18"/>
<text text-anchor="middle" x="742.04" y="-1267.3" font-family="Times-Roman" font-size="14.00"> Splitting</text>
</g>
<!-- authorization&#45;&gt;splitting -->
<g id="edge3" class="edge">
<title>authorization&#45;&gt;splitting</title>
<path fill="none" stroke="blue" d="M452.01,-1241.86C518.61,-1248.57 619.04,-1258.7 682.28,-1265.07"/>
<polygon fill="blue" stroke="blue" points="682.18,-1268.58 692.48,-1266.1 682.88,-1261.62 682.18,-1268.58"/>
</g>
<!-- authorization&#45;&gt;staging -->
<g id="edge9" class="edge">
<title>authorization&#45;&gt;staging</title>
<path fill="none" stroke="red" d="M413.17,-1251.53C501.39,-1299.13 769.59,-1425.73 935.93,-1307 995.01,-1264.83 1006.44,-1171.33 1008.32,-1124.25"/>
<polygon fill="red" stroke="red" points="1011.82,-1124.23 1008.61,-1114.14 1004.83,-1124.03 1011.82,-1124.23"/>
</g>
<!-- splitting&#45;&gt;staging -->
<g id="edge10" class="edge">
<title>splitting&#45;&gt;staging</title>
<path fill="none" stroke="blue" d="M793.32,-1273.24C835.3,-1272.59 894.72,-1265.51 935.93,-1235 972.84,-1207.67 992.59,-1155.98 1001.76,-1123.92"/>
<polygon fill="blue" stroke="blue" points="1005.14,-1124.82 1004.38,-1114.25 998.39,-1122.99 1005.14,-1124.82"/>
</g>
<!-- integrity_check -->
<g id="node21" class="node">
<title>integrity_check</title>
<polygon fill="none" stroke="green" points="1385.11,-1189 1236.11,-1189 1236.11,-1185 1232.11,-1185 1232.11,-1181 1236.11,-1181 1236.11,-1161 1232.11,-1161 1232.11,-1157 1236.11,-1157 1236.11,-1153 1385.11,-1153 1385.11,-1189"/>
<polyline fill="none" stroke="green" points="1236.11,-1185 1240.11,-1185 1240.11,-1181 1236.11,-1181 "/>
<polyline fill="none" stroke="green" points="1236.11,-1161 1240.11,-1161 1240.11,-1157 1236.11,-1157 "/>
<text text-anchor="middle" x="1310.61" y="-1167.3" font-family="Times-Roman" font-size="14.00">Document Scanner</text>
</g>
<!-- validation -->
<g id="node23" class="node">
<title>validation</title>
<ellipse fill="none" stroke="black" cx="1145.51" cy="-1096" rx="54.69" ry="18"/>
<text text-anchor="middle" x="1145.51" y="-1092.3" font-family="Times-Roman" font-size="14.00">Validation</text>
</g>
<!-- staging&#45;&gt;validation -->
<g id="edge4" class="edge">
<title>staging&#45;&gt;validation</title>
<path fill="none" stroke="red" d="M1043.91,-1084.13C1059.46,-1082.48 1078.25,-1082.08 1095.36,-1082.94"/>
<polygon fill="red" stroke="red" points="1095.54,-1086.46 1105.75,-1083.63 1096.01,-1079.47 1095.54,-1086.46"/>
</g>
<!-- staging&#45;&gt;validation -->
<g id="edge5" class="edge">
<title>staging&#45;&gt;validation</title>
<path fill="none" stroke="blue" d="M1043.91,-1107.87C1059.46,-1109.52 1078.25,-1109.92 1095.36,-1109.06"/>
<polygon fill="blue" stroke="blue" points="1096.01,-1112.53 1105.75,-1108.37 1095.54,-1105.54 1096.01,-1112.53"/>
</g>
<!-- validation&#45;&gt;integrity_check -->
<g id="edge8" class="edge">
<title>validation&#45;&gt;integrity_check</title>
<path fill="none" stroke="black" d="M1170.38,-1112.29C1187.96,-1123.74 1212.76,-1138.78 1236.11,-1149 1239.28,-1150.39 1242.57,-1151.72 1245.91,-1153"/>
</g>
<!-- persistence -->
<g id="node24" class="node">
<title>persistence</title>
<ellipse fill="none" stroke="black" cx="1310.61" cy="-1096" rx="62.29" ry="18"/>
<text text-anchor="middle" x="1310.61" y="-1092.3" font-family="Times-Roman" font-size="14.00">Persistence</text>
</g>
<!-- validation&#45;&gt;persistence -->
<g id="edge6" class="edge">
<title>validation&#45;&gt;persistence</title>
<path fill="none" stroke="red" d="M1186.83,-1084.17C1207.19,-1082.37 1232.2,-1082.02 1254.32,-1083.14"/>
<polygon fill="red" stroke="red" points="1254.39,-1086.65 1264.59,-1083.78 1254.82,-1079.67 1254.39,-1086.65"/>
</g>
<!-- validation&#45;&gt;persistence -->
<g id="edge7" class="edge">
<title>validation&#45;&gt;persistence</title>
<path fill="none" stroke="blue" d="M1186.83,-1107.83C1207.19,-1109.63 1232.2,-1109.98 1254.32,-1108.86"/>
<polygon fill="blue" stroke="blue" points="1254.82,-1112.33 1264.59,-1108.22 1254.39,-1105.35 1254.82,-1112.33"/>
</g>
<!-- persistence&#45;&gt;obj_store -->
<g id="edge14" class="edge">
<title>persistence&#45;&gt;obj_store</title>
<path fill="none" stroke="black" d="M1359.36,-1084.68C1378.47,-1080.49 1400.74,-1076.02 1421.11,-1073 1503.96,-1060.7 1723.33,-1080.62 1796.58,-1040 1822.4,-1025.68 1869.67,-952.67 1891.05,-918.14"/>
</g>
<!-- persistence&#45;&gt;md_store -->
<g id="edge15" class="edge">
<title>persistence&#45;&gt;md_store</title>
<path fill="none" stroke="black" d="M1348.08,-1081.38C1369.13,-1073.44 1396.28,-1064.04 1421.11,-1058 1490.61,-1041.09 1509.19,-1041.77 1580.4,-1035 1592.37,-1033.86 1787.56,-1032.95 1796.58,-1025 1851.07,-976.98 1780.39,-921.64 1824.58,-864 1830.36,-856.46 1838.09,-850.45 1846.44,-845.66"/>
</g>
<!-- aggregation -->
<g id="node25" class="node">
<title>aggregation</title>
<ellipse fill="none" stroke="black" cx="1486.75" cy="-1123" rx="65.79" ry="18"/>
<text text-anchor="middle" x="1486.75" y="-1119.3" font-family="Times-Roman" font-size="14.00">Aggregation</text>
</g>
<!-- persistence&#45;&gt;aggregation -->
<g id="edge12" class="edge">
<title>persistence&#45;&gt;aggregation</title>
<path fill="none" stroke="blue" d="M1366.23,-1104.47C1382.99,-1107.07 1401.62,-1109.96 1419.09,-1112.66"/>
<polygon fill="blue" stroke="blue" points="1418.8,-1116.16 1429.22,-1114.24 1419.88,-1109.24 1418.8,-1116.16"/>
</g>
<!-- ingestion_end -->
<g id="node26" class="node">
<title>ingestion_end</title>
<ellipse fill="none" stroke="red" cx="1688.49" cy="-1133" rx="27.9" ry="27.9"/>
<text text-anchor="middle" x="1688.49" y="-1129.3" font-family="Times-Roman" font-size="14.00">end</text>
</g>
<!-- persistence&#45;&gt;ingestion_end -->
<g id="edge11" class="edge">
<title>persistence&#45;&gt;ingestion_end</title>
<path fill="none" stroke="red" d="M1361.13,-1106.66C1369.5,-1109.6 1377.82,-1113.32 1385.11,-1118 1405.52,-1131.1 1399.02,-1149 1421.11,-1159 1498.06,-1193.84 1600.04,-1166.09 1652.71,-1147.07"/>
<polygon fill="red" stroke="red" points="1654.1,-1150.29 1662.25,-1143.52 1651.66,-1143.73 1654.1,-1150.29"/>
</g>
<!-- aggregation&#45;&gt;ingestion_end -->
<g id="edge13" class="edge">
<title>aggregation&#45;&gt;ingestion_end</title>
<path fill="none" stroke="blue" d="M1551.5,-1126.19C1584.1,-1127.82 1622.63,-1129.75 1650.34,-1131.14"/>
<polygon fill="blue" stroke="blue" points="1650.23,-1134.64 1660.39,-1131.64 1650.58,-1127.65 1650.23,-1134.64"/>
</g>
<!-- ingestion_end&#45;&gt;events_pub_sub -->
<g id="edge16" class="edge">
<title>ingestion_end&#45;&gt;events_pub_sub</title>
<path fill="none" stroke="black" d="M1715.81,-1126.28C1737.7,-1120.41 1769.55,-1111.26 1796.58,-1101 1816.93,-1093.28 1838.85,-1083.37 1857.4,-1074.49"/>
<polygon fill="black" stroke="black" points="1859.02,-1077.6 1866.5,-1070.09 1855.97,-1071.3 1859.02,-1077.6"/>
</g>
<!-- scheduler -->
<g id="node28" class="node">
<title>scheduler</title>
<ellipse fill="none" stroke="black" cx="2103.58" cy="-993" rx="61.99" ry="18"/>
<text text-anchor="middle" x="2103.58" y="-989.3" font-family="Times-Roman" font-size="14.00">Schedulder</text>
</g>
<!-- scheduler&#45;&gt;batch_data_pipeline -->
<g id="edge24" class="edge">
<title>scheduler&#45;&gt;batch_data_pipeline</title>
<path fill="none" stroke="black" d="M2142.84,-978.95C2170.9,-968.64 2209.54,-954.44 2241.55,-942.68"/>
<polygon fill="black" stroke="black" points="2243.08,-945.85 2251.26,-939.12 2240.66,-939.28 2243.08,-945.85"/>
</g>
<!-- document_transfer_http -->
<g id="node32" class="node">
<title>document_transfer_http</title>
<ellipse fill="none" stroke="black" cx="1688.49" cy="-900" rx="77.19" ry="18"/>
<text text-anchor="middle" x="1688.49" y="-896.3" font-family="Times-Roman" font-size="14.00">HTTP Endpoint</text>
</g>
<!-- document_transfer_http&#45;&gt;doc_access -->
<g id="edge36" class="edge">
<title>document_transfer_http&#45;&gt;doc_access</title>
<path fill="none" stroke="brown" d="M1621.25,-890.9C1605.55,-885.56 1590.47,-877.17 1580.4,-864 1516.57,-780.54 1613.9,-477.19 1552.4,-392 1484.96,-298.59 1426.82,-296 1311.61,-296 1008.42,-296 1008.42,-296 1008.42,-296 818.99,-296 598.86,-266.94 477.11,-248.29"/>
<polygon fill="brown" stroke="brown" points="477.49,-244.81 467.08,-246.75 476.43,-251.73 477.49,-244.81"/>
</g>
<!-- document_transfer_http&#45;&gt;obj_store -->
<g id="edge31" class="edge">
<title>document_transfer_http&#45;&gt;obj_store</title>
<path fill="none" stroke="black" d="M1765.94,-900C1789.86,-900 1815.99,-900 1838.89,-900"/>
</g>
<!-- document_transfer_http&#45;&gt;md_store -->
<g id="edge30" class="edge">
<title>document_transfer_http&#45;&gt;md_store</title>
<path fill="none" stroke="black" d="M1733.53,-885.24C1752.88,-878.75 1775.86,-871.02 1796.58,-864 1814.18,-858.04 1833.41,-851.49 1850.58,-845.63"/>
</g>
<!-- document_transfer_sftp -->
<g id="node33" class="node">
<title>document_transfer_sftp</title>
<ellipse fill="none" stroke="black" cx="1688.49" cy="-828" rx="69.59" ry="18"/>
<text text-anchor="middle" x="1688.49" y="-824.3" font-family="Times-Roman" font-size="14.00">SFTP Endoint</text>
</g>
<!-- document_transfer_sftp&#45;&gt;doc_access -->
<g id="edge37" class="edge">
<title>document_transfer_sftp&#45;&gt;doc_access</title>
<path fill="none" stroke="brown" d="M1625.39,-820.29C1608.22,-815.06 1591.32,-806.37 1580.4,-792 1509.83,-699.16 1629.09,-355.84 1552.4,-268 1480.74,-185.92 1420.56,-222 1311.61,-222 1008.42,-222 1008.42,-222 1008.42,-222 840.58,-222 647.4,-226.02 520.9,-229.2"/>
<polygon fill="brown" stroke="brown" points="520.68,-225.71 510.77,-229.46 520.86,-232.7 520.68,-225.71"/>
</g>
<!-- document_transfer_sftp&#45;&gt;obj_store -->
<g id="edge33" class="edge">
<title>document_transfer_sftp&#45;&gt;obj_store</title>
<path fill="none" stroke="black" d="M1731.72,-842.15C1751.43,-848.76 1775.21,-856.76 1796.58,-864 1814.54,-870.08 1834.21,-876.79 1851.65,-882.74"/>
</g>
<!-- document_transfer_sftp&#45;&gt;md_store -->
<g id="edge32" class="edge">
<title>document_transfer_sftp&#45;&gt;md_store</title>
<path fill="none" stroke="black" d="M1758.22,-828C1779.32,-828 1802.7,-828 1824.37,-828"/>
</g>
<!-- document_transfer_obj_store -->
<g id="node34" class="node">
<title>document_transfer_obj_store</title>
<ellipse fill="none" stroke="black" cx="1688.49" cy="-756" rx="100.18" ry="18"/>
<text text-anchor="middle" x="1688.49" y="-752.3" font-family="Times-Roman" font-size="14.00">Object Store Access</text>
</g>
<!-- document_transfer_obj_store&#45;&gt;doc_access -->
<g id="edge38" class="edge">
<title>document_transfer_obj_store&#45;&gt;doc_access</title>
<path fill="none" stroke="brown" d="M1685.74,-737.88C1676.91,-650.34 1634.45,-272.27 1552.4,-194 1473.56,-118.8 1420.56,-148 1311.61,-148 1008.42,-148 1008.42,-148 1008.42,-148 806.38,-148 755.55,-161.4 556.16,-194 522.73,-199.47 486.08,-207.48 455.22,-214.83"/>
<polygon fill="brown" stroke="brown" points="454.32,-211.45 445.41,-217.19 455.95,-218.25 454.32,-211.45"/>
</g>
<!-- document_transfer_obj_store&#45;&gt;obj_store -->
<g id="edge35" class="edge">
<title>document_transfer_obj_store&#45;&gt;obj_store</title>
<path fill="none" stroke="black" d="M1757.87,-769.1C1771.98,-774.35 1785.8,-781.71 1796.58,-792 1821.42,-815.71 1801.09,-838.96 1824.58,-864 1831.79,-871.68 1840.96,-877.87 1850.45,-882.81"/>
</g>
<!-- document_transfer_obj_store&#45;&gt;md_store -->
<g id="edge34" class="edge">
<title>document_transfer_obj_store&#45;&gt;md_store</title>
<path fill="none" stroke="black" d="M1736.68,-771.81C1755.35,-778.08 1776.98,-785.36 1796.58,-792 1814.18,-797.96 1833.41,-804.51 1850.58,-810.37"/>
</g>
</g>
</svg>
